<svg version="1.2" xmlns="http://www.w3.org/2000/svg" viewBox="0 0 48 48" width="48" height="48"><style>.a{display:none}</style><path fill-rule="evenodd" d="m24 2.5l-24 23.6 5.9 3 17.9-18.9 18.3 18.9 5.9-3zm-16.9 43.7h12.2v-11.7h9.3v11.7h12.3v-16.5l-16.9-16.9-16.9 16.9z"/><path fill-rule="evenodd" class="a" d="m10.2 5c13.9 0 13.9 22 0 22-13.6 0-13.6-22 0-22zm7 37.5h-6.7l20.2-36.8h6.7zm-6.9-31.7c-0.7 0-1.8 0.3-2 0.8q-0.2 0.8-0.2 4.4 0 3.6 0.2 4.4c0.2 0.5 1.3 0.8 2 0.8 0.7 0 1.9-0.3 2.1-0.8q0.2-0.8 0.2-4.4 0-3.6-0.2-4.4c-0.2-0.5-1.4-0.8-2.1-0.8zm27.4 10.5c13.8 0 13.8 22 0 22-13.7 0-13.7-22 0-22zm0 5.8c-0.7 0-1.8 0.3-2 0.8q-0.2 0.8-0.2 4.4 0 3.6 0.2 4.4c0.2 0.5 1.3 0.8 2 0.8 0.7 0 1.9-0.3 2.1-0.8 0.3-1.2 0.3-7.6 0-8.8-0.2-0.5-1.4-0.8-2.1-0.8z"/><path fill-rule="evenodd" class="a" d="m0.4 32.1l24.9-24.9c0.2 0.1 0.4 0 0.6-0.2 0.1-0.1 0.2-0.4 0.2-0.6l5.1-5.1c0.6-0.6 1.5-0.6 2 0l4.1 4.1c-1.1 1.7-0.9 4 0.6 5.5 1.6 1.5 3.9 1.8 5.6 0.7l4.1 4.1c0.5 0.5 0.5 1.4 0 1.9l-5.2 5.2q-0.3-0.1-0.6 0.2c-0.1 0.2-0.2 0.4-0.2 0.6l-24.8 24.9c-0.6 0.5-1.5 0.5-2 0l-4.1-4.1c1.2-1.7 1-4.1-0.5-5.7-1.6-1.5-4-1.7-5.7-0.6l-4.1-4c-0.5-0.6-0.5-1.5 0-2zm39.6-10c0.2 0.3 0.7 0.3 1 0 0.3-0.3 0.3-0.7 0-1-0.3-0.3-0.8-0.3-1 0-0.3 0.3-0.3 0.7 0 1zm-1.9-1.9c0.2 0.3 0.7 0.3 1 0 0.3-0.2 0.3-0.7 0-1-0.3-0.3-0.8-0.3-1 0-0.3 0.3-0.3 0.8 0 1zm-1.9-1.8c0.3 0.2 0.7 0.2 1 0 0.3-0.3 0.3-0.8 0-1.1-0.3-0.2-0.7-0.2-1 0-0.3 0.3-0.3 0.8 0 1.1zm-1.9-1.9c0.3 0.3 0.7 0.3 1 0 0.3-0.3 0.3-0.8 0-1.1-0.3-0.2-0.7-0.2-1 0-0.3 0.3-0.3 0.8 0 1.1zm-1.9-1.9c0.3 0.3 0.7 0.3 1 0 0.3-0.3 0.3-0.8 0-1-0.3-0.3-0.7-0.3-1 0-0.3 0.2-0.3 0.7 0 1zm-1.9-1.9c0.3 0.3 0.8 0.3 1 0 0.3-0.3 0.3-0.7 0-1-0.2-0.3-0.7-0.3-1 0-0.3 0.3-0.3 0.7 0 1zm-1.9-1.9c0.3 0.3 0.8 0.3 1.1 0 0.2-0.3 0.2-0.7 0-1-0.3-0.3-0.8-0.3-1.1 0-0.3 0.3-0.3 0.7 0 1zm-1.9-1.9c0.3 0.3 0.8 0.3 1.1 0 0.2-0.3 0.2-0.7 0-1-0.3-0.3-0.8-0.3-1.1 0-0.2 0.3-0.2 0.7 0 1zm-16.8 23.5l7.1 7.1c0.6 0.6 1.7 0.6 2.3 0l15.4-15.4c0.6-0.6 0.6-1.6 0-2.3l-7.1-7c-0.6-0.7-1.6-0.7-2.3 0l-15.4 15.3c-0.6 0.7-0.6 1.7 0 2.3z"/><path class="a" d="m20 10h10v12h-10z"/><path class="a" d="m8 24h10v12h-10z"/><path class="a" d="m32 24h10v12h-10z"/></svg>