<svg version="1.2" xmlns="http://www.w3.org/2000/svg" viewBox="0 0 48 48" width="48" height="48"><style>.a{display:none}</style><path fill-rule="evenodd" class="a" d="m11.7 38.3v-14.4h6.4c2.8 0.5 5.5 1.9 8.3 3.7h5c2.3 0.1 3.5 2.4 1.3 3.9-1.8 1.3-4.1 1.3-6.5 1.1-1.6-0.1-1.7 2.1 0 2.1 0.6 0 1.2-0.1 1.8-0.1 3 0 5.5-0.6 7-2.9l0.7-1.8 7.5-3.7c3.8-1.2 6.4 2.7 3.7 5.4-5.5 4-11 7.2-16.7 9.8-4.2 2.6-8.3 2.5-12.4 0zm4.9-34.2l27.9 7.4-3.9 14.5-27.9-7.4zm1.3 5l-1.5 5.7c1.2 0.3 1.9 1.6 1.6 2.7l18.5 5c0.3-1.2 1.6-1.9 2.7-1.6l1.6-5.7c-1.2-0.3-1.9-1.5-1.6-2.7l-18.5-5c-0.4 1.2-1.6 1.9-2.8 1.6zm11.8 1.7c2.4 0.6 3.8 3 3.2 5.4-0.7 2.4-3.1 3.8-5.4 3.1-2.4-0.6-3.8-3-3.2-5.4 0.7-2.3 3.1-3.7 5.4-3.1zm-20 11.7v17.3h-9.7v-17.3z"/><path fill-rule="evenodd" class="a" d="m7.8 21.3c-0.2 0.4-0.5 0.7-1 0.8-0.4 0.1-0.8 0.1-1.2-0.1q-0.6-0.3-0.9-0.9c-0.1-0.4-0.1-0.9 0.1-1.3q0.1-0.3 0.2-0.5 0.1-0.3 0.3-0.5 0.1-0.3 0.3-0.5 0.1-0.3 0.3-0.5 0.1-0.3 0.3-0.5 0.1-0.2 0.3-0.5 0.2-0.2 0.3-0.4 0.2-0.3 0.4-0.5 0.2-0.3 0.4-0.5 0.1-0.2 0.3-0.4 0.2-0.2 0.4-0.4 0.2-0.2 0.4-0.4 0.2-0.2 0.4-0.4 0.2-0.2 0.4-0.4 0.2-0.2 0.5-0.4 0.2-0.2 0.4-0.4 0.1-0.1 0.3-0.2 0.1 0 0.3-0.1 0.1 0 0.3-0.1 0.2 0 0.3 0.1 0.2 0 0.4 0 0.1 0.1 0.3 0.1 0.1 0.1 0.2 0.2 0.2 0.1 0.3 0.3 0.1 0.1 0.1 0.2 0.1 0.2 0.2 0.3 0 0.2 0 0.4 0 0.1 0 0.3 0 0.2 0 0.3-0.1 0.2-0.2 0.3 0 0.2-0.1 0.3-0.2 0.1-0.3 0.2-0.2 0.2-0.4 0.3-0.1 0.2-0.3 0.4-0.2 0.1-0.4 0.3-0.1 0.2-0.3 0.3-0.5 0.5-1 1.1-0.4 0.6-0.9 1.2-0.4 0.6-0.7 1.2-0.4 0.6-0.7 1.3zm1.4 3q0.9 0 1.8 0.1 0.9 0.2 1.7 0.6 0.8 0.3 1.6 0.8 0.7 0.5 1.4 1.1v0.1c0.9 0.9 1.5 1.9 2 3 0.4 1.1 0.7 2.3 0.7 3.5-0.1 1.2-0.3 2.4-0.8 3.5-0.4 1.1-1.1 2.1-1.9 2.9l-0.1 0.1c-2.2 2.1-5.3 3-8.3 2.4-3-0.6-5.5-2.7-6.6-5.5-1.2-2.8-0.8-6 0.9-8.6 1.7-2.5 4.5-4 7.6-4zm-5.7 14l0.1-0.1c1-0.6 2.5-0.5 3.5-1.1q0-0.1 0-0.1 0.1-0.1 0.1-0.1 0-0.1 0-0.1 0.1-0.1 0.1-0.1c0.1-0.2 0.1-0.4 0.2-0.6q-0.1-0.1-0.2-0.2 0-0.1-0.1-0.2-0.1-0.1-0.2-0.2 0-0.2-0.1-0.3l-0.6-0.9q-0.1-0.1-0.1-0.2-0.1-0.1-0.1-0.3-0.1-0.1-0.1-0.2 0-0.1-0.1-0.2 0-0.1 0-0.1 0 0 0.1-0.1 0 0 0-0.1 0-0.1 0-0.1 0.1 0 0.1-0.1 0.1-0.1 0.1-0.1 0.1 0 0.1 0 0-0.1 0.1-0.1-0.1-0.2-0.1-0.4 0-0.2 0-0.4 0-0.2 0-0.5 0-0.2 0-0.4 0.1-0.3 0.1-0.5 0.1-0.3 0.3-0.5 0.1-0.2 0.3-0.4 0.2-0.2 0.4-0.3 0.1-0.1 0.2-0.1 0.1-0.1 0.3-0.1 0.1-0.1 0.2-0.1 0.1-0.1 0.2-0.1c0.2-0.1-0.2-0.7 0-0.7 1-0.1 2.6 0.8 3.2 1.5q0.2 0.2 0.3 0.3 0.1 0.2 0.2 0.4 0 0.2 0.1 0.4c0 0.1 0 1.9 0 2q0.1 0 0.1 0 0.1 0.1 0.1 0.1 0.1 0 0.1 0.1 0 0.1 0 0.1 0 0.1 0 0.2 0 0.1 0 0.2 0 0.1-0.1 0.2 0 0.1 0 0.2l-0.7 1.2q-0.1 0.1-0.2 0.3-0.1 0.2-0.2 0.3-0.1 0.1-0.3 0.3-0.1 0.1-0.2 0.3 0 0 0.1 0 0 0 0 0.1 0.1 0.1 0.1 0.1 0.1 0.1 0.1 0.2 0.1 0.1 0.1 0.1 0.1 0.1 0.2 0.2c0.7 0.5 2.7 0.7 3.4 1.1h0.1l0.1 0.1q0.9-1.1 1.3-2.4 0.5-1.3 0.4-2.7 0-1.4-0.6-2.7-0.5-1.3-1.5-2.3l-0.1 0.1c-1.3-1.4-3.1-2.2-5.1-2.2-1.9 0-3.7 0.7-5.1 2-1.5 1.3-2.3 3.1-2.4 5-0.2 1.9 0.4 3.8 1.7 5.3zm35.3-14.1q0.9 0 1.8 0.1 0.9 0.2 1.7 0.6 0.9 0.3 1.6 0.8 0.8 0.5 1.4 1.1l0.1 0.1c0.8 0.9 1.5 1.9 1.9 3 0.5 1.1 0.7 2.3 0.7 3.5 0 1.2-0.2 2.4-0.7 3.5-0.5 1.1-1.1 2.1-2 2.9v0.1c-0.9 0.8-1.9 1.5-3 1.9-1.1 0.5-2.3 0.7-3.5 0.7-1.2 0-2.4-0.2-3.5-0.7-1.1-0.4-2.1-1.1-3-2-0.9-0.9-1.5-1.9-2-3-0.4-1.1-0.7-2.3-0.7-3.5 0-1.2 0.3-2.4 0.7-3.5 0.5-1.1 1.2-2.1 2-3h0.1q0.6-0.6 1.4-1.1 0.7-0.5 1.5-0.9 0.9-0.3 1.7-0.5 0.9-0.1 1.8-0.1zm-2.1 12.9c0.9-0.5 0.7-1 0.7-1.9h-1.3c-3.6 0-1.2 0.3-0.7-3.6 0.7-5.4 6.1-5.4 7 0 0.5 3.7 2.7 3.6-0.8 3.6h-1.4c0 1-0.1 1.4 0.9 2 0.7 0.4 2.3 0.6 3.1 1.3q1-1.1 1.5-2.4 0.6-1.4 0.6-2.8 0-1.5-0.6-2.8-0.6-1.4-1.6-2.4-1.1-1.1-2.4-1.6-1.4-0.6-2.9-0.6-1.4 0-2.8 0.5-1.4 0.6-2.4 1.6l-0.1 0.1q-1 1-1.6 2.3-0.5 1.4-0.5 2.9-0.1 1.4 0.5 2.8 0.5 1.3 1.5 2.4c0.8-0.7 2.4-0.8 3.3-1.4zm-12-36.1q0.9 0 1.8 0.1 0.9 0.2 1.7 0.5 0.9 0.4 1.6 0.9 0.8 0.5 1.4 1.1l0.1 0.1c0.8 0.8 1.5 1.9 1.9 3 0.5 1.1 0.7 2.3 0.7 3.5 0 1.2-0.2 2.4-0.7 3.5-0.5 1.1-1.1 2.1-2 2.9v0.1c-2.2 2.1-5.3 3-8.3 2.4-3-0.6-5.5-2.7-6.7-5.5-1.1-2.8-0.8-6 0.9-8.6 1.7-2.5 4.6-4 7.6-4zm-5.7 14l0.1-0.1c1-0.6 2.5-0.5 3.5-1.2q0.1 0 0.1 0 0-0.1 0-0.1 0.1-0.1 0.1-0.1 0-0.1 0-0.1c0.1-0.2 0.2-0.5 0.2-0.6q0-0.1-0.1-0.2-0.1-0.1-0.2-0.2 0-0.1-0.1-0.2-0.1-0.2-0.2-0.3l-0.6-0.9q0-0.1-0.1-0.2-0.1-0.1-0.1-0.3-0.1-0.1-0.1-0.2 0-0.1 0-0.2 0-0.1 0-0.1 0 0 0-0.1 0 0 0-0.1 0-0.1 0.1-0.1 0 0 0-0.1 0 0 0.1 0 0-0.1 0-0.1 0.1 0 0.1 0 0 0 0.1 0 0 0 0-0.1 0-0.2 0-0.4 0-0.2 0-0.4-0.1-0.2 0-0.5 0-0.2 0-0.4 0 0 0-0.1 0 0 0-0.1 0 0 0-0.1 0 0 0-0.1 0.1-0.2 0.2-0.4 0.1-0.2 0.2-0.3 0.2-0.2 0.3-0.3 0.2-0.2 0.4-0.3 0.1-0.1 0.2-0.1 0.1-0.1 0.2-0.1 0.1-0.1 0.2-0.1 0.1-0.1 0.2-0.1c0.2 0-0.1-0.7 0.1-0.7 0.9-0.1 2.5 0.8 3.2 1.5q0.1 0.2 0.2 0.4 0.1 0.1 0.2 0.3 0.1 0.2 0.1 0.4 0.1 0.2 0.1 0.4l-0.1 1.6q0.1 0 0.1 0 0.1 0.1 0.1 0.1 0.1 0 0.1 0.1 0 0.1 0.1 0.1 0 0.1 0 0.2 0 0.1-0.1 0.2 0 0.2 0 0.3-0.1 0.1-0.1 0.1 0 0.1 0 0.1l-0.7 1.1q-0.1 0.2-0.2 0.3-0.1 0.2-0.2 0.3-0.1 0.2-0.2 0.3-0.1 0.2-0.3 0.3l0.1 0.1q0.1 0.1 0.1 0.2 0.1 0 0.1 0.1 0.1 0.1 0.2 0.2 0 0 0.1 0.1c0.8 0.6 2.7 0.7 3.5 1.1l0.1 0.1q0.9-1.1 1.3-2.4 0.5-1.3 0.4-2.7 0-1.4-0.6-2.7-0.5-1.2-1.5-2.2c-1.4-1.4-3.2-2.2-5.1-2.2-1.9 0-3.8 0.7-5.2 2-1.4 1.3-2.3 3.1-2.4 5-0.1 1.9 0.5 3.8 1.7 5.3zm17 0.5q-0.3-0.3-0.5-0.8-0.1-0.5 0-1 0.2-0.5 0.6-0.8 0.4-0.3 0.9-0.3 0.2-0.1 0.3 0 0.2 0 0.3 0 0.2 0.1 0.3 0.2 0.2 0 0.3 0.1l0.6 0.6 0.6 0.5q0.6 0.6 1.1 1.2 0.5 0.6 1 1.2 0.5 0.6 0.9 1.3 0.4 0.7 0.8 1.4 0.2 0.5 0.1 1 0 0.5-0.4 0.9-0.3 0.4-0.8 0.5-0.5 0.1-0.9 0-0.2-0.1-0.3-0.1-0.2-0.1-0.3-0.2-0.1-0.1-0.2-0.3-0.1-0.1-0.2-0.2-0.3-0.6-0.6-1.2-0.4-0.5-0.8-1.1-0.4-0.5-0.9-1c-0.3-0.4-0.6-0.7-0.9-1q-0.4-0.5-1-0.9zm-6.3 28q0.1 0 0.3-0.1 0.2 0 0.3 0 0.2 0 0.4 0.1 0.1 0 0.3 0.1 0.1 0.1 0.3 0.2 0.1 0.1 0.2 0.2 0.1 0.1 0.2 0.3 0.1 0.1 0.1 0.3 0.1 0.3 0.1 0.6 0 0.3-0.2 0.6-0.1 0.3-0.4 0.6-0.2 0.2-0.5 0.3-0.8 0.3-1.7 0.5-0.8 0.2-1.6 0.3-0.8 0.1-1.7 0.2-0.8 0.1-1.7 0.1-0.8 0-1.7-0.1-0.8-0.1-1.7-0.2-0.8-0.2-1.7-0.4-0.8-0.2-1.6-0.5-0.2 0-0.3-0.1-0.1-0.1-0.3-0.2-0.1-0.1-0.2-0.2-0.1-0.2-0.2-0.3 0-0.2-0.1-0.3 0-0.2 0-0.4 0-0.1 0-0.3 0-0.1 0.1-0.3 0-0.2 0.1-0.3 0.1-0.1 0.2-0.3 0.1-0.1 0.2-0.2 0.2-0.1 0.3-0.2 0.2 0 0.3-0.1 0.2 0 0.3 0 0.2-0.1 0.4 0 0.1 0 0.3 0 0.7 0.3 1.4 0.4 0.6 0.2 1.3 0.3 0.7 0.1 1.4 0.2 0.8 0.1 1.5 0.1 0.7 0 1.4-0.1 0.7-0.1 1.4-0.2 0.7-0.1 1.4-0.3 0.7-0.1 1.3-0.3z"/><path fill-rule="evenodd" class="a" d="m12.2 17.3c-1.7 1-3.8 1.3-5.7 0.9-1.9-0.4-3.7-1.5-4.9-3.1-1.2-1.6-1.7-3.5-1.6-5.5 0.2-2 1-3.9 2.4-5.3q0.1 0 0.2-0.1l1 0.8q-1 0.9-1.6 2.2c-1.1 2.4-0.8 5.3 1 7.4l0.4-0.3c0.6-0.4 2.4-0.5 3.1-1q0-0.1 0.1-0.1 0-0.1 0.1-0.2 0 0 0.1-0.1 0-0.1 0-0.1l0.1-0.1q-0.1-0.2-0.2-0.3-0.1-0.1-0.2-0.2-0.1-0.2-0.2-0.3 0-0.1-0.1-0.3l-0.6-1q-0.1-0.1-0.1-0.2 0 0-0.1-0.1 0-0.1 0-0.2 0-0.1 0-0.2 0-0.1 0.1-0.1 0-0.1 0-0.1 0.1 0 0.1-0.1 0 0 0.1 0c0-0.1 0-1.6 0-1.7q0-0.2 0.1-0.4 0.1-0.2 0.2-0.3 0 0 0-0.1l4.6 4-0.3 0.6q-0.1 0.1-0.2 0.2 0 0.1-0.1 0.2-0.1 0.1-0.1 0.2-0.1 0.1-0.2 0.2c0.1 0.1 0.2 0.3 0.2 0.5q0 0 0.1 0.1 0 0 0 0.1 0 0 0.1 0 0 0.1 0 0.1c0.9 0.6 2.2 0.5 3.1 1l0.4 0.3q0.2-0.2 0.4-0.5l0.9 0.8q0 0.1-0.1 0.2l1.8 1.7q0.1-0.1 0.2-0.2l1.2 1q-1 1-1.6 2.3c-1.2 2.7-0.6 5.8 1.3 7.9v0.1c1.2-0.5 2.3-0.4 3.3-1.1q0 0 0-0.1 0.1 0 0.1-0.1 0 0 0-0.1 0.1 0 0.1-0.1c0.1-0.2 0.2-0.4 0.2-0.6q-0.1-0.1-0.2-0.2 0-0.1-0.1-0.2-0.1-0.1-0.2-0.3-0.1-0.1-0.1-0.2l-0.7-1q0-0.1-0.1-0.2-0.1-0.1-0.1-0.3-0.1-0.1-0.1-0.2 0-0.1 0-0.3 0-0.1 0-0.1 0-0.1 0-0.1 0 0 0-0.1 0.1 0 0.1-0.1 0.1-0.1 0.1-0.1 0 0 0.1 0 0-0.1 0-0.1 0.1 0 0.1 0 0-0.2 0-0.5 0-0.2 0-0.4 0-0.3 0-0.5 0-0.2 0-0.5 0 0 0-0.1 0 0 0-0.1 0 0 0-0.1 0 0 0.1-0.1 0-0.2 0.1-0.3l5.5 4.8-0.2 0.3q-0.1 0.2-0.2 0.3-0.1 0.2-0.2 0.3-0.1 0.2-0.2 0.3-0.2 0.2-0.3 0.3l0.1 0.2q0 0.1 0.1 0.1 0.1 0.1 0.1 0.2 0.1 0.1 0.1 0.1 0.1 0.1 0.2 0.2c0.9 0.7 2 0.6 3.2 1q0.3-0.2 0.5-0.5l5.6 4.9q-0.7 0.8-1.2 1.8c-1.1 2.4-0.7 5.3 1 7.4l0.4-0.3c0.9-0.5 2.2-0.4 3.1-1q0-0.1 0.1-0.1 0-0.1 0-0.1 0 0 0-0.1c0.1-0.2 0.2-0.4 0.2-0.5q0-0.1-0.1-0.2-0.1-0.1-0.1-0.2-0.1-0.1-0.2-0.2 0-0.1-0.1-0.2l-0.5-0.8q-0.1-0.1-0.1-0.2-0.1-0.1-0.1-0.2-0.1-0.1-0.1-0.2 0-0.1 0-0.2 0 0 0-0.1 0-0.1 0-0.1 0 0 0-0.1 0 0 0.1 0 0-0.1 0-0.1 0.1-0.1 0.1-0.1 0 0 0.1 0 0-0.2 0-0.4 0-0.2 0-0.4 0-0.2 0-0.4 0-0.2 0-0.4 0 0 0-0.1 0-0.1 0.1-0.1 0-0.1 0-0.1l4.5 3.9q-0.1 0.2-0.1 0.3-0.1 0.1-0.2 0.3-0.1 0.1-0.2 0.2-0.1 0.1-0.2 0.3l0.1 0.1q0 0 0 0.1 0.1 0.1 0.1 0.1 0.1 0.1 0.1 0.2 0.1 0 0.1 0.1c0.7 0.5 2.4 0.6 3.1 1l0.4 0.3c1.8-2.1 2.1-5 1-7.4-1.1-2.5-3.6-4-6.3-4-1.6 0-3.1 0.5-4.4 1.5q-3.1-2.6-5.9-4.9c1.2-2 1.4-4.5 0.4-6.7-1.1-2.7-3.8-4.4-6.7-4.4-1.8 0-3.5 0.6-4.8 1.7q-0.7-0.5-1.2-1 1.1-1 2.6-1.6c1-0.5 2.2-0.7 3.4-0.7 1.2 0 2.3 0.2 3.4 0.7 1.1 0.4 2.1 1.1 2.9 1.9q0.2 0.2 0.3 0.4l2-2c-2.3-3.5-1.5-8.2 1.7-10.8 3.3-2.6 8-2.4 11 0.6 2.9 3 3.2 7.7 0.5 11-2.6 3.2-7.3 3.9-10.8 1.6l-2.6 2.6q0.3 0.8 0.4 1.6 0.2 0.8 0.1 1.7 0 0.8-0.2 1.6-0.2 0.8-0.5 1.6l3.9 3.7c3.5-2.3 8.2-1.6 10.9 1.7 2.6 3.2 2.4 7.9-0.6 10.9-2.9 3-7.7 3.3-10.9 0.6-3.3-2.6-4.1-7.3-1.8-10.8l-3.5-3.2q-1.1 1.1-2.5 1.7-1.4 0.7-3 0.8-1.5 0.1-3-0.3-1.5-0.4-2.8-1.3l-2.4 2.3c1 1.8 1.4 3.8 1.1 5.8-0.4 2-1.4 3.8-3 5-1.6 1.3-3.6 1.9-5.6 1.8-2-0.2-3.9-1-5.3-2.5-1.5-1.4-2.4-3.4-2.5-5.4-0.1-2.1 0.5-4.1 1.8-5.7 1.4-1.6 3.2-2.6 5.3-2.9 2-0.3 4.1 0.2 5.8 1.4l2.4-2.2q-0.6-0.9-0.9-1.9-0.4-0.9-0.5-2-0.1-1 0-2 0.1-1.1 0.4-2zm-4.2-15.6c2.1-0.1 4.2 0.6 5.8 2 1.6 1.4 2.6 3.4 2.8 5.5 0.2 1.9-0.3 3.7-1.4 5.3q-0.5-0.4-1-0.8c1.2-2 1.4-4.4 0.4-6.6-1.1-2.4-3.6-4-6.3-4-1.7 0-3.4 0.7-4.6 1.8q-0.6-0.5-1-0.9c1.4-1.4 3.3-2.2 5.3-2.3zm8.8 14.8l-1.8-1.7q0.1-0.1 0.2-0.3 1 0.8 2 1.7-0.2 0.1-0.3 0.3 0 0-0.1 0zm-10.6-9.7c0.6-0.6 2-1.4 2.8-1.3 0.2 0-0.1 0.6 0.1 0.6q0.1 0 0.2 0.1 0.1 0 0.1 0.1 0.1 0 0.2 0 0.1 0.1 0.2 0.1 0.2 0.1 0.3 0.3 0.2 0.1 0.3 0.2 0.1 0.2 0.2 0.3 0.1 0.2 0.1 0.4 0 0 0 0.1 0 0 0.1 0.1 0 0.1 0 0.1 0 0.2 0 0.4 0 0.2 0 0.4 0 0.2 0 0.4 0 0.2 0 0.4 0 0 0.1 0 0 0 0 0.1 0.1 0 0.1 0 0 0 0 0.1 0.1 0 0.1 0 0 0.1 0 0.1 0 0 0 0.1 0 0.1 0 0.1 0 0.1 0 0.2 0 0.1-0.1 0.2 0 0.1-0.1 0.2 0 0.1-0.1 0.2c-1.9-1.5-3.4-2.8-4.7-3.9q0.1 0 0.1-0.1zm2.5 23q-2.1 0-3.9 1.2c-1.1 0.7-2 1.8-2.5 3-0.5 1.3-0.7 2.7-0.5 4 0.3 1.3 0.9 2.6 1.9 3.6 0.4-0.9 2.3-1.1 3-1.5 0.9-0.4 0.7-0.9 0.7-1.7h-1.2c-3 0-1.1 0.1-0.6-3.1 0.7-4.8 5.5-4.8 6.1 0 0.4 3.4 2.5 3.1-0.6 3.1h-1.2c0 0.8-0.2 1.2 0.6 1.7 1 0.6 2.7 0.7 3.2 1.5 0.9-1 1.6-2.2 1.8-3.5 0.3-1.4 0.1-2.8-0.4-4.1-0.5-1.2-1.4-2.3-2.6-3-1.1-0.8-2.5-1.2-3.8-1.2zm28.2-16.1c0.7-0.5 0.6-0.9 0.6-1.7h-1.2c-3.1 0-1 0.3-0.6-3.1 0.6-4.7 5.4-4.8 6.1 0 0.5 3.2 2.4 3.1-0.6 3.1h-1.2c0 0.9-0.2 1.3 0.7 1.7 0.7 0.4 2.6 0.7 3 1.5 2-2 2.5-5 1.4-7.5-1.1-2.6-3.6-4.3-6.4-4.2-2.8 0-5.3 1.6-6.4 4.2-1.1 2.6-0.5 5.5 1.4 7.5 0.5-0.8 2.2-0.9 3.2-1.5zm-34.2-9.6q-0.1 0-0.1 0l-2.5-2.2c0 0 0 0 2.6 2.2zm34.7 30.3l-2.7-2.3q0.4-0.3 0.7-0.6 1.3 1 2.6 2-0.2 0.1-0.3 0.3-0.1 0.1-0.2 0.3-0.1 0.1-0.1 0.3zm0.9-1.1q0.1-0.1 0.2-0.1 0.1-0.1 0.2-0.1 0.1-0.1 0.2-0.1 0.1 0 0.2 0c0.1-0.1-0.2-0.6 0-0.7 0.9 0 2.2 0.7 2.8 1.4q0.1 0.1 0.2 0.3 0.1 0.1 0.2 0.3 0.1 0.1 0.1 0.3 0 0.2 0 0.4v1.4q0.1 0 0.1 0 0 0 0.1 0.1 0 0 0 0.1 0.1 0 0.1 0.1 0 0 0 0.1 0 0.1 0 0.2 0 0.1-0.1 0.2 0 0.1-0.1 0.2-2.3-2-4.5-3.9 0.2-0.1 0.3-0.2zm-27.7-22.2l0.2-0.3q1.5 1.3 3.4 2.9-0.1 0.2-0.2 0.3zm-4.5-4.1q-0.1 0.1-0.1 0.1l-2.4-2.1q0 0 0-0.1 1.1 0.9 2.5 2.1zm14.3 12.7l-2.4-2.1q0.2-0.2 0.3-0.4 1.2 1 2.4 2-0.2 0.2-0.3 0.4 0 0 0 0.1zm0.6-0.8q0.1-0.2 0.3-0.3 0.1 0 0.2-0.1 0.1-0.1 0.3-0.1 0.1 0 0.2-0.1 0.1 0 0.2-0.1c0.2 0-0.1-0.7 0.1-0.7 1-0.1 2.6 0.8 3.4 1.6q0.1 0.2 0.2 0.3 0.1 0.2 0.2 0.4 0.1 0.2 0.1 0.4 0.1 0.2 0.1 0.5l-0.1 1.6q0.1 0 0.2 0.1 0 0 0.1 0.1 0 0 0 0.1 0.1 0 0.1 0.1 0 0.1 0 0.2 0 0.1 0 0.2-0.1 0.1-0.1 0.3 0 0.1-0.1 0.2l-0.1 0.2q-3.1-2.5-5.6-4.6 0.1-0.2 0.3-0.3zm5.3 4.9q1.5 1.3 3.2 2.8-0.2 0.3-0.4 0.6l-3.2-2.7z"/><path fill-rule="evenodd" class="a" d="m24 2.5l-24 23.6 5.9 3 17.9-18.9 18.3 18.9 5.9-3zm-16.9 43.7h12.2v-11.7h9.3v11.7h12.3v-16.5l-16.9-16.9-16.9 16.9z"/><path fill-rule="evenodd" class="a" d="m10.2 5c13.9 0 13.9 22 0 22-13.6 0-13.6-22 0-22zm7 37.5h-6.7l20.2-36.8h6.7zm-6.9-31.7c-0.7 0-1.8 0.3-2 0.8q-0.2 0.8-0.2 4.4 0 3.6 0.2 4.4c0.2 0.5 1.3 0.8 2 0.8 0.7 0 1.9-0.3 2.1-0.8q0.2-0.8 0.2-4.4 0-3.6-0.2-4.4c-0.2-0.5-1.4-0.8-2.1-0.8zm27.4 10.5c13.8 0 13.8 22 0 22-13.7 0-13.7-22 0-22zm0 5.8c-0.7 0-1.8 0.3-2 0.8q-0.2 0.8-0.2 4.4 0 3.6 0.2 4.4c0.2 0.5 1.3 0.8 2 0.8 0.7 0 1.9-0.3 2.1-0.8 0.3-1.2 0.3-7.6 0-8.8-0.2-0.5-1.4-0.8-2.1-0.8z"/><path fill-rule="evenodd" class="a" d="m0.4 32.1l24.9-24.9c0.2 0.1 0.4 0 0.6-0.2 0.1-0.1 0.2-0.4 0.2-0.6l5.1-5.1c0.6-0.6 1.5-0.6 2 0l4.1 4.1c-1.1 1.7-0.9 4 0.6 5.5 1.6 1.5 3.9 1.8 5.6 0.7l4.1 4.1c0.5 0.5 0.5 1.4 0 1.9l-5.2 5.2q-0.3-0.1-0.6 0.2c-0.1 0.2-0.2 0.4-0.2 0.6l-24.8 24.9c-0.6 0.5-1.5 0.5-2 0l-4.1-4.1c1.2-1.7 1-4.1-0.5-5.7-1.6-1.5-4-1.7-5.7-0.6l-4.1-4c-0.5-0.6-0.5-1.5 0-2zm39.6-10c0.2 0.3 0.7 0.3 1 0 0.3-0.3 0.3-0.7 0-1-0.3-0.3-0.8-0.3-1 0-0.3 0.3-0.3 0.7 0 1zm-1.9-1.9c0.2 0.3 0.7 0.3 1 0 0.3-0.2 0.3-0.7 0-1-0.3-0.3-0.8-0.3-1 0-0.3 0.3-0.3 0.8 0 1zm-1.9-1.8c0.3 0.2 0.7 0.2 1 0 0.3-0.3 0.3-0.8 0-1.1-0.3-0.2-0.7-0.2-1 0-0.3 0.3-0.3 0.8 0 1.1zm-1.9-1.9c0.3 0.3 0.7 0.3 1 0 0.3-0.3 0.3-0.8 0-1.1-0.3-0.2-0.7-0.2-1 0-0.3 0.3-0.3 0.8 0 1.1zm-1.9-1.9c0.3 0.3 0.7 0.3 1 0 0.3-0.3 0.3-0.8 0-1-0.3-0.3-0.7-0.3-1 0-0.3 0.2-0.3 0.7 0 1zm-1.9-1.9c0.3 0.3 0.8 0.3 1 0 0.3-0.3 0.3-0.7 0-1-0.2-0.3-0.7-0.3-1 0-0.3 0.3-0.3 0.7 0 1zm-1.9-1.9c0.3 0.3 0.8 0.3 1.1 0 0.2-0.3 0.2-0.7 0-1-0.3-0.3-0.8-0.3-1.1 0-0.3 0.3-0.3 0.7 0 1zm-1.9-1.9c0.3 0.3 0.8 0.3 1.1 0 0.2-0.3 0.2-0.7 0-1-0.3-0.3-0.8-0.3-1.1 0-0.2 0.3-0.2 0.7 0 1zm-16.8 23.5l7.1 7.1c0.6 0.6 1.7 0.6 2.3 0l15.4-15.4c0.6-0.6 0.6-1.6 0-2.3l-7.1-7c-0.6-0.7-1.6-0.7-2.3 0l-15.4 15.3c-0.6 0.7-0.6 1.7 0 2.3z"/><path class="a" d="m20 10h10v12h-10z"/><path class="a" d="m8 24h10v12h-10z"/><path class="a" d="m32 24h10v12h-10z"/><path fill-rule="evenodd" class="a" d="m27.2 37.7l5.1 5.2c1.3 0 2.3 1.1 2.3 2.3 0 1.3-1.1 2.3-2.3 2.3-1.3 0-2.4-1-2.4-2.3q0-0.2 0.1-0.4l-4.5-4.5v3.3h-3.2v-3.2l-4.6 4.6q0 0.1 0 0.2c0 1.3-1 2.4-2.3 2.4-1.3 0-2.4-1.1-2.4-2.4 0-1.3 1.1-2.3 2.4-2.3q0 0 0.1 0l5.2-5.2h-20.7v-32.8c0-0.3 0.3-0.6 0.6-0.6h21.7v-2.3h3.2v2.3h21.9c0.3 0 0.6 0.3 0.6 0.6v32.8zm-23.7-27.2v23.6h40.9v-23.6zm7.1 16l9.1-8.9c2.2 2.2 4.4 4.5 6.7 6.7l6-6.1-2.8-2.8 7.9-0.1v8l-2.7-2.7q-4.2 4.2-8.4 8.5l-6.8-6.8-6.6 6.5z"/><path fill-rule="evenodd" class="a" d="m38.4 6.5c2 0 3.7 1.6 3.7 3.7 0 2.1-1.7 3.8-3.7 3.8-0.8 0-1.5-0.3-2-0.6q-0.1 0-0.1 0.1l-2.8 2.6c1.9 2.1 3 4.8 3.2 7.7h3.9c0.3-1.7 1.8-3.1 3.7-3.1 2 0 3.7 1.7 3.7 3.8 0 2-1.7 3.7-3.7 3.7-1.8 0-3.3-1.2-3.7-2.8h-3.9c-0.2 2.9-1.4 5.5-3.3 7.6l2.9 2.7q0.1 0 0.1 0.1c0.6-0.4 1.3-0.6 2-0.6 2 0 3.7 1.7 3.7 3.8 0 2-1.7 3.7-3.7 3.7-2.1 0-3.8-1.7-3.8-3.7 0-0.8 0.3-1.6 0.7-2.2l-3-2.8c-2.2 1.9-5 3-8.1 3-3.2 0-6.1-1.2-8.3-3.2l-3.1 3c0.4 0.6 0.7 1.3 0.7 2.1 0 2.1-1.7 3.7-3.8 3.7-2 0-3.7-1.6-3.7-3.7 0-2.1 1.7-3.7 3.7-3.7 0.8 0 1.5 0.2 2 0.5q0 0 0.1 0l3-2.9c-1.8-2.1-2.9-4.7-3.1-7.5h-4.3c-0.3 1.7-1.8 3-3.7 3-2 0-3.7-1.6-3.7-3.7 0-2.1 1.7-3.8 3.7-3.8 1.8 0 3.3 1.3 3.7 3h4.3c0.2-2.9 1.3-5.5 3.1-7.6l-3.2-3q0-0.1-0.1-0.1-0.7 0.4-1.7 0.4c-2.1 0-3.7-1.6-3.7-3.7 0-2.1 1.6-3.7 3.7-3.7 2.1 0 3.7 1.6 3.7 3.7 0 0.9-0.3 1.7-0.8 2.3l3.2 3c2.2-1.9 5.1-3.1 8.3-3.1 3.1 0 6 1.1 8.2 3.1l2.8-2.7q0.1-0.1 0.1-0.1c-0.4-0.6-0.7-1.3-0.7-2.1 0-2.1 1.7-3.7 3.8-3.7zm-6.5 10.2q0 0 0-0.1c-2-1.9-4.7-3.1-7.7-3.1-3 0-5.7 1.2-7.7 3.1q0 0.1-0.1 0.1 0 0.1-0.1 0.1c-1.9 2-3.1 4.7-3.1 7.7 0 3 1.2 5.8 3.2 7.8 2 1.9 4.8 3.2 7.8 3.2 3 0 5.8-1.3 7.8-3.2 1.9-2 3.2-4.8 3.2-7.8 0-3.1-1.3-5.8-3.2-7.8zm-4.9 4.4q0.2 0.1 0.3 0.3 0.2 0.3-0.1 0.9l-0.7 1.1c-0.2 0.4-0.5 0.9-0.8 1.2-0.4 0.3-0.9 0.6-1.5 0.6-0.5 0-1-0.3-1.3-0.6-0.4-0.3-0.6-0.7-0.9-1.1l-0.6-0.9q-0.3-0.5-0.3-0.9 0-0.1 0.1-0.3 0-0.1 0.2-0.2 0-0.1 0.1-0.1c0-0.5 0-1.1 0-1.6q0-0.2 0.1-0.4c0.1-0.6 0.5-1 1-1.3q0.2-0.1 0.5-0.2c1.1-0.4 2.6-0.2 3.4 0.6q0.5 0.6 0.6 1.5zm-5 0q0 0.1 0 0.1v0.1q-0.1 0-0.1 0-0.1 0-0.1 0-0.2 0.1-0.3 0.1 0 0.1 0 0.1-0.1 0.1-0.1 0.1 0 0.3 0.3 0.7l0.6 0.9c0.2 0.4 0.5 0.8 0.8 1.1 0.3 0.2 0.6 0.4 1.1 0.4 0.5 0 0.8-0.2 1.1-0.5 0.3-0.3 0.6-0.7 0.8-1.1l0.7-1q0.2-0.5 0.1-0.6 0-0.1-0.3-0.1-0.1 0-0.2 0 0-0.2 0-0.3l0.2-0.7c-1.2 0-2.1-0.2-3-0.9-0.3-0.2-0.4-0.4-0.8-0.4q-0.3 0.1-0.6 0.4-0.2 0.2-0.3 0.6zm0.3 4.7l1 3.1 0.5-1.9-0.2-0.3q-0.2-0.2-0.1-0.4c0.1-0.3 0.4-0.2 0.7-0.2 0.3 0 0.6-0.1 0.7 0.3q0 0.2-0.1 0.3l-0.2 0.3 0.5 1.9 0.9-3.1c0.7 0.6 2.7 0.7 3.5 1.1q0.3 0.2 0.6 0.6 0.4 0.5 0.5 1.3l0.1 1.6q0 0.6-0.7 0.6h-11.7q-0.7 0-0.7-0.6l0.1-1.6q0.1-0.8 0.5-1.3 0.3-0.4 0.6-0.6c0.8-0.4 2.8-0.5 3.5-1.1z"/><path fill-rule="evenodd" d="m-1.1 6l5.3 2.9-5 9.4-5.3-2.9zm47.2 35.2h-28.3c-0.5 0-1-0.2-1.3-0.5-0.3-0.4-0.5-0.8-0.5-1.3v-10.2q-1.7-0.9-3.2-2.1l-4.6-1c-1.9-0.7-3.3-1.6-4-3.1q-0.5-1.1-1.2-2.1c-0.9-1.4-0.2-0.6-1.6-1.5l-1-0.7c0.8-2.1 3.8-7.2 4.9-9.2l3.6 1.1c3.2 1.2 6.7 2 10.4 2.7 1.7 0.5 2.9 1.3 3.4 2.3l3.1 6h20.3c0.5 0 0.9 0.2 1.3 0.5q0 0.1 0 0.1c0.3 0.3 0.5 0.8 0.5 1.3v15.9c0 0.5-0.2 0.9-0.5 1.3-0.3 0.3-0.8 0.5-1.3 0.5zm-28.9-3.4v1.6q0 0.2 0.2 0.4 0.2 0.1 0.4 0.2h28.3q0.3-0.1 0.4-0.2 0.2-0.2 0.2-0.4v-1.6zm29.4-14.3q0-0.3-0.1-0.4 0 0-0.1-0.1-0.1-0.1-0.3-0.1h-28.4q-0.1 0-0.2 0.1c2.2 0.9 4 2 5.3 3.5 1.9 2.4 0.5 4.8-2.6 4.2q-1.6-0.3-3-0.9v3.2h29.4zm-10.8 4.1c0-1.3 1.1-2.4 2.4-2.4 0.8 0 1.5 0.4 1.9 0.9 0.5-0.5 1.2-0.9 2-0.9 1.3 0 2.4 1.1 2.4 2.4 0 1.3-1.1 2.4-2.4 2.4-0.8 0-1.5-0.4-2-1-0.4 0.6-1.1 1-1.9 1-1.3 0-2.4-1.1-2.4-2.4zm-19.5-5.2q0.1-0.1 0.2-0.2c0.3-0.3 0.7-0.5 1.2-0.5h2.6q-0.6-0.7-1.1-1.4c-0.6-1-0.3-0.8-1.6-1q-1-0.2-2-0.3c-0.5 0.4-0.9 0.7-1.3 1.2 0.5 0.9 1.2 1.6 2 2.2z"/></svg>